<?xml version="1.0" standalone="no"?>
<!DOCTYPE svg PUBLIC "-//W3C//DTD SVG 20010904//EN"
 "http://www.w3.org/TR/2001/REC-SVG-20010904/DTD/svg10.dtd">
<svg version="1.0" xmlns="http://www.w3.org/2000/svg"
 width="137.000000pt" height="146.000000pt" viewBox="0 0 137.000000 146.000000"
 preserveAspectRatio="xMidYMid meet">
<metadata>
Created by potrace 1.10, written by Peter Selinger 2001-2011
</metadata>
<g transform="translate(0.000000,146.000000) scale(0.100000,-0.100000)"
fill="#000000" stroke="none">
<path d="M110 1421 c19 -4 63 -6 97 -5 68 1 89 -15 46 -35 -21 -10 -24 -16
-18 -38 5 -23 4 -25 -9 -14 -12 10 -14 9 -9 -11 4 -19 3 -20 -7 -8 -10 13 -11
13 -6 -2 7 -24 -6 -23 -22 2 -7 11 -18 20 -25 20 -6 0 -4 -5 6 -11 9 -5 17
-17 17 -24 0 -25 23 -17 68 23 33 29 38 38 23 38 -11 0 -17 -4 -15 -8 3 -4 0
-8 -5 -8 -6 0 -11 7 -11 15 0 10 9 13 31 10 23 -3 38 3 58 21 21 20 33 24 61
20 19 -3 63 -6 97 -6 56 0 61 -2 56 -20 -7 -25 -2 -25 50 2 23 12 60 27 82 34
34 11 -8 13 -280 12 -176 0 -304 -4 -285 -7z"/>
<path d="M748 1411 c-57 -18 -163 -79 -154 -88 2 -3 24 6 48 20 24 13 59 27
78 30 45 7 63 11 75 18 6 3 39 7 75 8 36 1 79 4 96 7 18 3 47 -1 69 -10 25
-11 42 -13 48 -7 6 6 23 7 40 4 17 -4 28 -2 25 3 -4 5 5 10 18 10 16 1 24 -3
24 -15 0 -12 2 -13 8 -3 5 7 23 11 43 9 19 -2 40 1 47 7 8 6 16 6 20 0 10 -13
43 -14 35 -1 -4 6 0 8 10 4 11 -4 17 -1 17 8 0 13 -40 15 -282 14 -246 0 -291
-2 -340 -18z"/>
<path d="M20 1400 c13 -8 12 -10 -2 -10 -10 0 -18 -7 -18 -15 0 -8 5 -15 10
-15 6 0 10 4 10 10 0 5 7 7 15 4 8 -3 13 -11 12 -16 -1 -6 4 -13 12 -16 8 -3
11 0 7 7 -5 7 -1 9 8 5 9 -3 16 -1 16 5 0 6 -7 11 -16 11 -8 0 -13 4 -10 9 3
4 -6 13 -20 20 -30 13 -45 14 -24 1z"/>
<path d="M99 1388 c-5 -22 -5 -68 1 -61 13 14 21 63 10 63 -5 0 -10 -1 -11 -2z"/>
<path d="M1093 1380 c1 -6 21 -22 44 -35 39 -24 41 -24 36 -5 -3 11 -9 18 -13
15 -13 -8 -40 6 -33 18 4 6 0 8 -10 4 -9 -3 -18 -2 -21 4 -2 5 -4 5 -3 -1z"/>
<path d="M517 1317 c-34 -9 -61 -25 -93 -55 -56 -55 -56 -66 -1 -57 32 6 56
20 97 59 78 72 78 72 -3 53z"/>
<path d="M1044 1210 c1 -58 -2 -69 -29 -104 l-30 -40 27 18 c15 10 33 14 39
10 8 -4 9 -3 5 5 -4 6 0 14 8 17 19 7 15 73 -7 126 -14 33 -14 33 -13 -32z"/>
<path d="M1168 1180 c3 -55 1 -80 -8 -85 -8 -5 -16 -1 -21 8 -8 14 -12 14 -39
0 -37 -18 -39 -27 -3 -20 15 3 35 1 43 -3 22 -12 33 -2 48 41 19 56 13 123
-12 132 -10 4 -11 -14 -8 -73z"/>
<path d="M771 1181 c-14 -86 -14 -114 -1 -106 6 3 10 15 10 26 0 12 4 17 11
14 5 -4 7 -19 4 -34 -7 -32 8 -48 52 -57 26 -5 34 -1 54 26 18 23 30 30 46 27
21 -4 20 -1 -11 33 -33 37 -55 107 -41 130 3 5 -1 10 -9 10 -21 0 -20 -19 3
-83 15 -44 16 -60 7 -88 -9 -29 -16 -35 -45 -37 -42 -4 -62 12 -38 30 16 12
16 17 -4 71 -12 32 -19 69 -16 83 2 13 1 24 -3 24 -4 0 -12 -31 -19 -69z"/>
<path d="M962 1180 c0 -30 3 -64 8 -75 11 -26 11 70 0 105 -6 19 -8 12 -8 -30z"/>
<path d="M353 1178 c-6 -7 -13 -24 -16 -38 -6 -24 -6 -24 9 -5 25 33 35 55 26
55 -5 0 -14 -6 -19 -12z"/>
<path d="M297 1169 c-17 -10 -24 -59 -8 -59 8 0 34 60 28 66 -1 1 -10 -2 -20
-7z"/>
<path d="M701 1142 c-13 -46 -45 -90 -75 -102 -20 -8 -20 -9 -1 -9 11 -1 33
10 49 24 21 18 32 22 42 14 10 -8 12 1 7 48 -3 32 -7 60 -9 62 -1 1 -7 -15
-13 -37z"/>
<path d="M413 1141 c-12 -21 -28 -33 -51 -37 -18 -3 -42 -14 -55 -23 -12 -10
-44 -25 -70 -35 -64 -24 -83 -59 -47 -88 16 -13 33 -18 51 -14 18 3 29 0 33
-9 8 -23 40 -18 65 11 31 36 65 30 69 -13 3 -28 0 -33 -17 -33 -12 0 -21 5
-21 10 0 6 -7 10 -15 10 -8 0 -15 -7 -15 -15 0 -17 -26 -21 -32 -4 -5 14 -38
0 -38 -17 0 -20 -18 -17 -29 5 -15 27 -51 34 -51 11 0 -11 -9 -25 -21 -34 -19
-13 -20 -18 -9 -50 6 -20 15 -36 19 -36 3 0 6 -19 6 -42 0 -24 3 -55 7 -70 l8
-26 -42 20 c-23 11 -52 21 -65 21 -13 0 -20 4 -16 10 3 6 1 7 -6 3 -6 -4 -9
-11 -6 -16 3 -4 -6 -7 -19 -6 -20 1 -22 4 -13 15 10 12 9 12 -10 3 -23 -13
-25 -43 -3 -50 7 -3 10 0 6 7 -5 7 -1 9 10 4 12 -5 15 -3 9 6 -6 10 -3 11 13
2 12 -6 25 -11 29 -10 19 3 34 -2 29 -10 -3 -4 6 -13 19 -19 14 -7 25 -7 25
-2 0 5 20 2 45 -7 25 -8 45 -18 45 -22 0 -9 18 -12 78 -12 46 0 69 10 105 44
24 22 24 26 29 245 l5 222 -33 -6 c-40 -7 -44 5 -13 48 12 16 19 32 15 35 -3
3 -13 -8 -23 -26z m-23 -77 c23 -5 28 -9 18 -16 -10 -7 -10 -11 0 -15 18 -7
14 -30 -7 -36 -10 -2 -25 -1 -34 4 -10 6 -17 4 -21 -6 -7 -19 -56 -20 -56 -1
0 7 15 18 33 24 18 5 24 10 14 11 -29 2 -57 -18 -57 -41 0 -18 -4 -20 -32 -14
-58 11 -52 21 37 65 69 34 63 33 105 25z m-34 -182 c-2 -4 13 -6 35 -4 39 4
39 4 39 -32 0 -41 -7 -44 -43 -16 -14 11 -33 20 -42 20 -9 0 -13 5 -10 10 3 6
0 10 -7 10 -9 0 -9 3 2 10 18 12 33 13 26 2z m-118 -20 c9 -6 4 -16 -17 -36
-22 -21 -30 -24 -34 -13 -5 15 18 57 31 57 4 0 13 -4 20 -8z m143 -71 c24 -25
29 -38 29 -79 0 -62 -26 -98 -77 -108 -103 -19 -175 109 -104 185 24 26 36 31
76 31 38 0 52 -5 76 -29z"/>
<path d="M255 775 c-72 -71 21 -187 103 -129 18 12 22 25 22 64 0 41 -4 52
-26 69 -35 28 -69 26 -99 -4z m78 -32 c19 -17 20 -17 14 0 -4 10 -3 16 3 12
11 -7 2 -64 -13 -82 -12 -16 -49 -17 -65 -1 -15 15 -15 61 0 76 17 17 38 15
61 -5z"/>
<path d="M1273 1091 c-7 -12 -13 -33 -13 -48 0 -16 -10 -44 -21 -63 l-21 -35
25 23 c33 31 49 71 45 111 -3 30 -4 31 -15 12z"/>
<path d="M510 1044 c-14 -35 -12 -41 4 -18 12 15 17 17 27 7 22 -22 30 -14 13
12 -21 32 -32 32 -44 -1z"/>
<path d="M1210 1060 c0 -5 -7 -10 -15 -10 -12 0 -13 -4 -6 -18 5 -10 7 -34 5
-53 -5 -27 -3 -31 7 -22 10 10 21 113 12 113 -2 0 -3 -4 -3 -10z"/>
<path d="M1003 1023 c-30 -12 -8 -23 45 -23 36 0 66 -6 78 -15 24 -18 45 -19
38 -2 -13 35 -113 60 -161 40z"/>
<path d="M546 968 c-38 -36 -56 -78 -34 -78 8 0 19 13 25 30 15 40 54 55 110
41 51 -13 63 -14 63 -2 0 12 -74 41 -105 41 -15 0 -40 -14 -59 -32z"/>
<path d="M1019 949 c-18 -16 -20 -19 -6 -15 16 5 16 3 -3 -25 -17 -23 -22 -44
-22 -90 0 -77 10 -88 69 -81 35 4 44 2 38 -8 -5 -8 -18 -10 -38 -6 -37 8 -26
-5 21 -24 18 -7 36 -9 40 -5 4 4 2 10 -4 12 -8 2 -5 16 7 41 11 20 18 54 18
77 l-1 40 -10 -40 c-5 -22 -9 -48 -9 -57 0 -11 -8 -18 -20 -18 -24 0 -24 11 0
31 11 10 21 38 26 70 4 30 10 45 13 35 2 -11 10 -26 18 -34 21 -20 19 10 -3
51 -9 18 -17 36 -18 40 -1 31 -83 35 -116 6z m55 -44 c7 -20 -2 -42 -21 -50
-25 -9 -35 8 -24 38 11 29 35 36 45 12z m-14 -115 c0 -27 -29 -25 -39 3 -5 12
-7 25 -4 30 8 13 43 -13 43 -33z"/>
<path d="M1201 927 c-8 -10 -11 -29 -8 -44 6 -30 -9 -67 -22 -58 -5 2 -11 -8
-14 -23 -3 -15 -9 -36 -12 -47 -6 -16 -3 -16 14 5 l21 25 0 -40 c0 -27 3 -36
11 -28 13 13 31 141 27 190 -3 32 -5 35 -17 20z"/>
<path d="M604 896 c-18 -8 -35 -19 -38 -25 -10 -15 -5 -14 35 6 19 10 55 18
81 18 26 1 51 4 55 8 12 13 -102 6 -133 -7z"/>
<path d="M579 851 c-72 -45 -87 -113 -38 -176 35 -43 42 -27 9 19 -28 39 -30
46 -19 67 l13 24 6 -30 c9 -42 27 -73 50 -85 11 -6 17 -16 14 -25 -9 -22 17
-27 61 -12 74 26 105 109 71 192 -27 63 -93 73 -167 26z m78 -17 c7 -18 -12
-34 -40 -34 -23 0 -34 29 -16 41 22 14 49 10 56 -7z m63 -48 c-1 -27 -21 -54
-37 -49 -8 3 -13 -4 -13 -17 0 -33 -59 -24 -79 12 -20 35 -10 44 25 21 16 -10
25 -12 20 -5 -5 9 -2 15 11 18 10 3 25 19 32 35 10 24 16 27 27 18 8 -6 14
-21 14 -33z m-22 -118 c-7 -19 -40 -21 -63 -4 -19 14 -17 15 23 16 31 0 42 -4
40 -12z"/>
<path d="M1322 679 c-13 -5 -28 -7 -33 -3 -5 3 -9 0 -9 -6 0 -6 -5 -8 -12 -4
-6 4 -8 3 -5 -3 8 -13 99 -11 104 3 5 16 -18 23 -45 13z"/>
<path d="M1171 633 c1 -4 -1 -16 -6 -27 -5 -12 -3 -21 6 -26 16 -11 42 8 32
23 -4 6 0 8 10 4 28 -11 19 1 -13 18 -17 9 -29 12 -29 8z"/>
<path d="M1320 605 c-7 -9 -10 -18 -6 -22 3 -3 6 -1 6 6 0 7 10 10 25 7 28 -5
34 8 9 18 -21 8 -20 8 -34 -9z"/>
<path d="M340 560 c0 -6 7 -10 15 -10 8 0 15 -4 15 -10 0 -5 7 -10 16 -10 9 0
12 -5 8 -12 -5 -9 -2 -9 9 1 12 9 17 10 17 2 0 -7 5 -9 12 -5 6 4 17 -1 24
-10 7 -10 15 -17 18 -17 20 3 27 0 22 -8 -3 -4 6 -7 19 -5 14 1 25 -2 25 -7 0
-5 6 -8 12 -6 8 1 13 -10 13 -33 0 -23 -4 -34 -13 -32 -7 1 -32 -11 -56 -27
-24 -17 -47 -27 -51 -23 -4 4 -6 -2 -3 -14 6 -24 -9 -57 -22 -49 -4 3 -11 -2
-14 -11 -3 -8 -2 -13 3 -10 5 3 12 -1 15 -10 3 -8 2 -12 -3 -9 -14 8 -21 -9
-11 -25 5 -8 5 -19 -1 -26 -5 -6 -10 -23 -11 -37 -1 -15 -9 -29 -16 -32 -11
-4 -12 -8 -2 -20 10 -12 10 -15 0 -15 -9 0 -10 -3 -1 -13 6 -9 7 -17 1 -23
-13 -13 -1 -54 15 -54 9 0 17 29 25 88 6 48 22 121 34 162 19 62 26 75 43 74
15 0 19 5 15 18 -2 10 1 18 8 18 6 0 45 13 87 30 41 16 78 30 83 30 5 0 14
-16 20 -35 6 -19 27 -47 46 -62 l35 -26 37 30 c29 24 59 63 68 90 0 2 27 -8
60 -21 32 -13 77 -27 99 -31 22 -4 45 -12 51 -16 13 -11 61 -211 69 -292 7
-63 19 -71 53 -34 15 16 18 27 12 37 -5 8 -10 33 -10 56 0 58 24 77 89 73 46
-4 51 -2 51 16 0 16 -2 17 -10 5 -8 -12 -10 -12 -15 2 -5 13 -13 14 -36 8 -20
-6 -29 -5 -29 3 0 7 -4 6 -10 -3 -5 -8 -10 -10 -10 -5 0 6 -9 -1 -20 -15 -13
-15 -18 -18 -14 -7 5 13 2 16 -11 11 -10 -4 -15 -14 -12 -25 3 -10 -1 -20 -9
-23 -8 -3 -11 0 -7 10 3 8 -1 22 -8 31 -12 14 -12 16 1 9 8 -4 6 0 -4 8 -11 9
-16 16 -12 16 5 0 3 6 -3 14 -9 11 -6 18 16 35 15 12 24 20 18 19 -13 -4 -49
24 -53 40 -1 7 -15 24 -30 38 -22 19 -23 23 -7 18 19 -5 19 -5 2 6 -10 6 -24
9 -32 6 -9 -3 -12 0 -8 10 3 10 0 12 -10 8 -9 -3 -13 -13 -9 -27 5 -21 4 -21
-16 3 -19 21 -21 22 -16 5 5 -18 4 -18 -6 -2 -6 9 -8 22 -5 27 8 13 -25 26
-34 14 -3 -5 -19 -10 -34 -11 -51 -2 -98 -14 -92 -23 9 -14 -25 -60 -44 -60
-10 0 -25 6 -36 13 -15 12 -16 15 -4 23 8 5 18 9 23 9 5 0 11 5 13 10 1 6 -38
20 -89 33 -75 18 -197 62 -345 122 -15 6 -23 6 -23 0z"/>
<path d="M1128 553 c-7 -10 -22 -24 -33 -31 -11 -7 -35 -22 -52 -33 -18 -12
-33 -25 -33 -29 0 -16 65 13 83 37 10 13 22 21 27 18 14 -9 38 5 43 25 3 14 1
17 -11 13 -10 -4 -13 -2 -8 5 11 19 -1 14 -16 -5z"/>
<path d="M1305 526 c-18 -13 -18 -14 2 -24 20 -11 33 -7 33 11 0 5 -7 6 -16 3
-14 -5 -15 -4 -4 9 15 19 10 19 -15 1z"/>
<path d="M1100 491 c-5 -11 -10 -28 -9 -38 0 -15 2 -14 9 5 12 27 26 28 40 2
6 -11 16 -17 22 -14 7 5 5 12 -8 21 -10 8 -18 18 -17 23 2 5 -5 6 -14 3 -11
-4 -14 -3 -9 5 4 7 5 12 2 12 -3 0 -10 -9 -16 -19z"/>
<path d="M182 316 c4 -5 3 -17 -3 -28 -7 -14 -6 -22 6 -34 8 -8 16 -13 16 -10
1 3 2 9 3 14 1 4 5 12 8 18 4 6 -2 20 -15 30 -12 10 -19 15 -15 10z"/>
<path d="M50 304 c0 -6 -11 -17 -25 -24 -28 -15 -24 -25 10 -25 17 -1 21 3 15
10 -7 8 -4 12 8 12 9 0 20 -5 24 -11 5 -7 8 -7 8 3 0 9 8 11 26 7 19 -5 25 -3
22 6 -3 7 -20 13 -39 13 -19 0 -37 5 -41 10 -5 6 -8 6 -8 -1z"/>
<path d="M516 265 c8 -23 39 -55 53 -55 5 0 25 -9 43 -19 34 -20 103 -24 103
-6 0 6 -26 13 -57 16 -58 6 -70 12 -121 58 -25 23 -27 23 -21 6z"/>
<path d="M780 237 c0 -5 9 -7 19 -4 11 2 32 -4 48 -15 20 -14 23 -18 9 -16
-10 2 -21 -1 -22 -7 -3 -6 23 -10 66 -9 63 1 73 4 97 29 23 23 24 27 8 21 -11
-4 -33 -10 -50 -13 -16 -3 -38 -10 -47 -15 -10 -5 -18 -5 -18 0 0 12 -50 34
-82 37 -16 1 -28 -3 -28 -8z"/>
<path d="M1266 155 c-18 -19 -21 -57 -6 -86 16 -29 88 -27 99 4 5 12 5 24 1
27 -3 3 -6 19 -6 35 1 27 -2 30 -35 33 -24 2 -42 -3 -53 -13z m62 -64 c-9 -15
-15 -17 -25 -9 -16 13 -17 40 -1 56 19 19 42 -21 26 -47z"/>
<path d="M126 148 c5 -8 2 -9 -9 -5 -10 3 -17 2 -17 -4 0 -6 -4 -8 -9 -5 -5 4
-7 -2 -4 -12 3 -14 -4 -22 -26 -32 -17 -7 -31 -16 -31 -21 0 -5 -7 -9 -15 -9
-16 0 -19 -9 -9 -34 9 -24 27 -19 46 13 24 43 71 64 124 56 24 -3 46 -10 49
-16 4 -5 11 -7 16 -3 5 3 8 2 7 -3 -3 -11 31 -73 40 -73 4 0 8 9 8 20 0 11 -3
20 -7 20 -3 0 -5 19 -4 43 2 57 -9 82 -15 34 l-5 -38 -23 21 c-12 11 -28 18
-35 15 -6 -4 -3 1 8 11 12 10 14 15 5 12 -8 -3 -26 -1 -40 5 -41 16 -62 18
-54 5z"/>
<path d="M113 40 c-38 -23 -44 -45 -10 -36 12 3 25 6 30 6 4 0 7 7 7 15 0 8 7
15 15 15 8 0 15 -6 15 -14 0 -12 28 -25 53 -26 14 0 -17 39 -40 49 -31 14 -33
14 -70 -9z"/>
<path d="M1350 32 c0 -4 -17 -6 -38 -4 -30 3 -39 0 -39 -12 0 -19 28 -21 46
-3 11 10 13 9 7 -1 -6 -10 -2 -10 18 0 26 11 35 28 16 28 -5 0 -10 -3 -10 -8z"/>
</g>
</svg>
